PathFileType   4   (X/Y/Z)																																																																																																																							
DataRate	CameraRate	NumFrames	NumMarkers	Units	OrigDataRate	OrigDataStartFrame	OrigNumFrames																																																																																																																
120	120	4	37	mm	120	1	125																																																																																																																
Frame#	Time	Sternum	R.Acromium	L.Acromium	Top.Head	R.ASIS	L.ASIS	V.Sacral	R.Thigh.Upper	R.Thigh.Front	R.Thigh.Rear	R.Knee.Lat	R.Knee.Med	R.Shank.Upper	R.Shank.Front	R.Shank.Rear	R.Ankle.Lat	R.Ankle.Med	R.Heel	R.Midfoot.Sup	R.Midfoot.Lat	R.Toe.Lat	R.Toe.Med	R.Toe.Tip	L.Thigh.Upper	L.Thigh.Front	L.Thigh.Rear	L.Knee.Lat	L.Knee.Med	L.Shank.Upper	L.Shank.Front	L.Shank.Rear	L.Ankle.Lat	L.Ankle.Med	L.Heel	L.Midfoot.Sup	L.Midfoot.Lat	L.Toe.Lat	L.Toe.Med	L.Toe.Tip																																																																															
 	 	X1	Y1	Z1	X2	Y2	Z2	X3	Y3	Z3	X4	Y4	Z4	X5	Y5	Z5	X6	Y6	Z6	X7	Y7	Z7	X8	Y8	Z8	X9	Y9	Z9	X10	Y10	Z10	X11	Y11	Z11	X12	Y12	Z12	X13	Y13	Z13	X14	Y14	Z14	X15	Y15	Z15	X16	Y16	Z16	X17	Y17	Z17	X18	Y18	Z18	X19	Y19	Z19	X20	Y20	Z20	X21	Y21	Z21	X22	Y22	Z22	X23	Y23	Z23	X24	Y24	Z24	X25	Y25	Z25	X26	Y26	Z26	X27	Y27	Z27	X28	Y28	Z28	X29	Y29	Z29	X30	Y30	Z30	X31	Y31	Z31	X32	Y32	Z32	X33	Y33	Z33	X34	Y34	Z34	X35	Y35	Z35	X36	Y36	Z36	X37	Y37	Z37							
																																																																																																																							
	1	0.125	65.62669214	-0.001002095	1249.025034	-20.13436837	-161.9453511	1300.848769	-17.39234238	165.1979949	1301.059947	42.72558777	-10.08809499	1540.304668	143.2607435	-117.7896216	862.3171491	148.4680229	119.399185	854.5788968	-32.74980089	-5.611229398	876.2046192	85.69188044	-173.4115572	527.1757135	142.097531	-67.95180237	453.1295611	60.43162975	-162.9734513	395.264584	7.137416457	-142.5943975	305.5685869	3.32291391	-8.355853302	287.3957395	-55.14361304	-154.6508593	308.9184165	-31.53288022	-93.81404015	219.4505999	-116.8183783	-165.0122006	234.2533385	-359.8928771	-136.9768135	27.79209788	-341.8725695	-37.22329306	31.52185017	-406.8476526	-79.10633289	87.46101779	-345.1773022	-41.71858376	-51.86739363	-366.7673737	-155.3841374	-53.53989534	-359.3219547	-165.0174344	-151.4605673	-345.4377331	-50.15543807	-149.2047739	-323.5890441	-83.79364801	-209.9435269	148.1401887	178.8034865	562.1356707	243.4035132	95.03600439	538.6427386	166.9702861	161.7547942	442.7780763	173.6468916	144.5366564	296.1368131	174.7696671	15.87918741	297.2313862	175.3651749	162.4477689	271.0203905	234.0036727	100.5194763	225.0690775	165.1476374	174.5177999	220.1255465	247.3695921	136.4325857	-121.2808707	247.117669	34.31683281	-94.85812385	164.6423926	76.11439987	-140.616299	347.2257453	48.15109198	-140.2057864	327.7522199	152.6198727	-139.9553749	394.4381911	163.716336	-165.4353447	412.4887719	55.50675189	-165.6888938	464.6098467	82.30973808	-165.4799147
	2	0.13333	75.15215414	-0.001002095	1249.631999	-10.51290587	-161.9453511	1301.61427	-7.770493974	165.1979949	1301.820375	52.78984321	-10.08809499	1540.953492	152.1819267	-117.7896216	863.0355064	157.3928988	119.399185	855.2997403	-23.83522594	-5.611229398	876.8389681	102.0090126	-173.4115572	528.9217996	160.5910245	-67.95180237	456.585239	80.68146677	-162.9734513	396.3180207	30.07735025	-142.5943975	305.0773037	26.80478794	-8.355853302	286.7990886	-33.18644507	-154.6508593	309.4316793	-11.67120462	-93.81404015	219.4369498	-96.58780931	-165.0122006	236.2270513	-344.4168627	-136.9768135	35.4978404	-326.3143793	-37.22329306	38.80580534	-391.3616363	-79.10633289	95.14584643	-329.901194	-41.71858376	-44.27528674	-351.49376	-155.3841374	-45.91527043	-344.1958246	-165.0174344	-143.8470446	-330.3082214	-50.15543807	-141.6121644	-308.5510339	-83.79364801	-202.3837541	154.3528433	178.8034865	561.607998	249.3056571	95.03600439	536.8899474	171.6439578	161.7547942	442.017759	176.4311533	144.5366564	295.3026612	177.5679346	15.87918741	296.3826813	178.0605649	162.4477689	270.236728	236.2605329	100.5194763	223.7312412	167.3607016	174.5177999	219.4410969	246.3403959	136.4325857	-122.7299121	246.3391287	34.31683281	-96.3059644	163.5796113	76.11439987	-141.9802083	346.1631802	48.15109198	-141.6808918	326.6898109	152.6198727	-141.4186207	393.3602521	163.716336	-166.9391985	411.4106751	55.50675189	-167.2037407	463.5318675	82.30973808	-167.0265041
	3	0.14167	84.65484946	-0.001002095	1250.231664	-0.916231177	-161.9453511	1302.368495	1.826548322	165.1979949	1302.569649	62.81847638	-10.08809499	1541.593052	161.0879023	-117.7896216	863.728874	166.3013357	119.399185	855.9947664	-14.93363375	-5.611229398	877.4763256	118.2765972	-173.4115572	530.8781626	178.9873854	-67.95180237	460.3187527	100.9085382	-162.9734513	397.6979204	53.04477091	-142.5943975	304.9902895	50.31813521	-8.355853302	286.622702	-11.14348485	-154.6508593	310.2820413	8.338994562	-93.81404015	219.8254776	-76.17783272	-165.0122006	238.5242253	-328.4658011	-136.9768135	43.42876956	-310.2933932	-37.22329306	46.32810242	-375.4787303	-79.10633289	102.9973723	-314.0542335	-41.71858376	-36.43960107	-335.6472215	-155.3841374	-38.07401803	-328.3745337	-165.0174344	-136.0076704	-314.4863548	-50.15543807	-133.7763706	-292.7448352	-83.79364801	-194.5535674	160.519553	178.8034865	561.1045085	255.1459094	95.03600439	535.1647411	176.2679297	161.7547942	441.3013511	179.1638355	144.5366564	294.5367406	180.314442	15.87918741	295.6020199	180.7090131	162.4477689	269.5212132	238.4669757	100.5194763	222.4678994	169.5296844	174.5177999	218.8289472	245.2728477	136.4325857	-124.0730282	245.5212475	34.31683281	-97.65024803	162.4791233	76.11439987	-143.2389263	345.0628386	48.15109198	-143.0489253	325.5896298	152.6198727	-142.7749952	392.2447795	163.716336	-168.335485	410.2950409	55.50675189	-168.6108342	462.41633	82.30973808	-168.4648034
	4	0.15	94.11342643	-0.001002095	1250.818756	8.632078598	-161.9453511	1303.102579	11.37519977	165.1979949	1303.29902	72.77784201	-10.08809499	1542.217244	169.9646511	-117.7896216	864.3744635	175.1781829	119.399185	856.6404223	-6.057059815	-5.611229398	878.1196754	134.4715664	-173.4115572	533.0376505	197.2642944	-67.95180237	464.3244537	121.0921126	-162.9734513	399.397774	76.02082407	-142.5943975	305.3008878	73.84442595	-8.355853302	286.8600065	10.96893518	-154.6508593	311.4181965	28.55777392	-93.81404015	220.5744313	-55.55004922	-165.0122006	241.0344252	-311.8579884	-136.9768135	51.2511379	-293.6289859	-37.22329306	53.77026631	-359.0886336	-79.10633289	110.6245128	-297.3613731	-41.71858376	-28.67869489	-318.9507596	-155.3841374	-30.36001594	-311.465341	-165.0174344	-128.2776383	-297.582042	-50.15543807	-126.0161734	-275.7085433	-83.79364801	-186.7459962	166.6124639	178.8034865	560.6152205	260.8962598	95.03600439	533.4567097	180.8137872	161.7547942	440.6188442	181.8158433	144.5366564	293.8290863	182.9800985	15.87918741	294.8794314	183.2841785	162.4477689	268.8645713	240.5984269	100.5194763	221.2717828	171.6300468	174.5177999	218.2793518	244.1548058	136.4325857	-125.3177245	244.6509367	34.31683281	-98.89843478	161.3289748	76.11439987	-144.4006181	343.9127698	48.15109198	-144.316861	324.4397237	152.6198727	-144.0315997	391.0799887	163.716336	-169.6308712	409.1300868	55.50675189	-169.9167236	461.2514521	82.30973808	-169.8010217
